<?xml version="1.0" encoding="utf-8"?>

<!-- Uploaded to: SVG Repo, www.svgrepo.com, Generator: SVG Repo Mixer Tools -->
<svg fill="#000000" height="800px" width="800px" version="1.1" id="Icons" xmlns="http://www.w3.org/2000/svg" xmlns:xlink="http://www.w3.org/1999/xlink" 
	 viewBox="0 0 32 32" xml:space="preserve">
<g>
	<path d="M22,12c-0.3,0-0.5-0.1-0.7-0.3L16,6.4l-5.3,5.3c-0.4,0.4-1,0.4-1.4,0s-0.4-1,0-1.4l6-6c0.4-0.4,1-0.4,1.4,0l6,6
		c0.4,0.4,0.4,1,0,1.4C22.5,11.9,22.3,12,22,12z"/>
</g>
<g>
	<path d="M16,28c-0.6,0-1-0.4-1-1V5c0-0.6,0.4-1,1-1s1,0.4,1,1v22C17,27.6,16.6,28,16,28z"/>
</g>
</svg>